<svg width="19" height="20" viewBox="0 0 19 20" fill="none" xmlns="http://www.w3.org/2000/svg">
<path fill-rule="evenodd" clip-rule="evenodd" d="M1.14185 9.9986C1.14185 5.57948 4.72425 1.99707 9.14337 1.99707C13.5625 1.99707 17.1449 5.57948 17.1449 9.9986C17.1449 14.4177 13.5625 18.0001 9.14337 18.0001C4.72425 18.0001 1.14185 14.4177 1.14185 9.9986ZM8.73924 7.54505C8.51604 7.32185 8.51604 6.95997 8.73924 6.73677C8.96243 6.51357 9.32431 6.51357 9.54751 6.73677L12.4052 9.59446C12.6284 9.81766 12.6284 10.1795 12.4052 10.4027L9.54751 13.2604C9.32431 13.4836 8.96243 13.4836 8.73924 13.2604C8.51604 13.0372 8.51604 12.6753 8.73924 12.4521L10.6212 10.5701H6.28568C5.97003 10.5701 5.71415 10.3142 5.71415 9.9986C5.71415 9.68295 5.97003 9.42706 6.28568 9.42706H10.6212L8.73924 7.54505Z" fill="#2EBB48"/>
</svg>
