<svg width="24" height="24" viewBox="0 0 24 24" fill="none" xmlns="http://www.w3.org/2000/svg">
<g opacity="0.85">
<path d="M11.2494 6.75C11.2494 7.16421 11.5852 7.5 11.9994 7.5C12.4136 7.5 12.7494 7.16421 12.7494 6.75H11.2494ZM12.7494 5.25C12.7494 4.83579 12.4136 4.5 11.9994 4.5C11.5852 4.5 11.2494 4.83579 11.2494 5.25H12.7494ZM7.04415 10.0215C7.40117 10.2315 7.86085 10.1123 8.07086 9.75527C8.28088 9.39824 8.1617 8.93856 7.80468 8.72855L7.04415 10.0215ZM6.52968 7.97855C6.17265 7.76853 5.71298 7.88771 5.50296 8.24474C5.29295 8.60176 5.41212 9.06144 5.76915 9.27145L6.52968 7.97855ZM7.80468 15.2715C8.1617 15.0614 8.28088 14.6018 8.07086 14.2447C7.86085 13.8877 7.40117 13.7685 7.04415 13.9785L7.80468 15.2715ZM5.76915 14.7285C5.41212 14.9386 5.29295 15.3982 5.50296 15.7553C5.71298 16.1123 6.17265 16.2315 6.52968 16.0215L5.76915 14.7285ZM12.7494 17.25C12.7494 16.8358 12.4136 16.5 11.9994 16.5C11.5852 16.5 11.2494 16.8358 11.2494 17.25H12.7494ZM11.2494 18.75C11.2494 19.1642 11.5852 19.5 11.9994 19.5C12.4136 19.5 12.7494 19.1642 12.7494 18.75H11.2494ZM16.9547 13.9785C16.5977 13.7685 16.138 13.8877 15.928 14.2447C15.7179 14.6018 15.8371 15.0614 16.1941 15.2715L16.9547 13.9785ZM17.4691 16.0215C17.8262 16.2315 18.2858 16.1123 18.4959 15.7553C18.7059 15.3982 18.5867 14.9386 18.2297 14.7285L17.4691 16.0215ZM16.1941 8.72855C15.8371 8.93856 15.7179 9.39824 15.928 9.75527C16.138 10.1123 16.5977 10.2315 16.9547 10.0215L16.1941 8.72855ZM18.2297 9.27145C18.5867 9.06144 18.7059 8.60176 18.4959 8.24473C18.2858 7.88771 17.8262 7.76853 17.4691 7.97855L18.2297 9.27145ZM12.7494 6.75V5.25H11.2494V6.75H12.7494ZM7.80468 8.72855L6.52968 7.97855L5.76915 9.27145L7.04415 10.0215L7.80468 8.72855ZM7.04415 13.9785L5.76915 14.7285L6.52968 16.0215L7.80468 15.2715L7.04415 13.9785ZM11.2494 17.25V18.75H12.7494V17.25H11.2494ZM16.1941 15.2715L17.4691 16.0215L18.2297 14.7285L16.9547 13.9785L16.1941 15.2715ZM16.9547 10.0215L18.2297 9.27145L17.4691 7.97855L16.1941 8.72855L16.9547 10.0215Z" fill="white"/>
</g>
</svg>
