<svg width="24" height="24" viewBox="0 0 24 24" fill="none" xmlns="http://www.w3.org/2000/svg">
<path d="M17.1561 15.092C16.8628 14.7987 16.3872 14.7987 16.0939 15.092C15.8006 15.3853 15.8006 15.8608 16.0939 16.1541L17.1561 15.092ZM19.4689 19.5291C19.7622 19.8224 20.2378 19.8224 20.5311 19.5291C20.8244 19.2358 20.8244 18.7603 20.5311 18.467L19.4689 19.5291ZM17.7489 10.748C17.7489 14.0612 15.0631 16.747 11.75 16.747V18.2491C15.8927 18.2491 19.251 14.8908 19.251 10.748H17.7489ZM11.75 16.747C8.43687 16.747 5.75105 14.0612 5.75105 10.748H4.24895C4.24895 14.8908 7.60728 18.2491 11.75 18.2491V16.747ZM5.75105 10.748C5.75105 7.43492 8.43687 4.7491 11.75 4.7491V3.247C7.60728 3.247 4.24895 6.60533 4.24895 10.748H5.75105ZM11.75 4.7491C15.0631 4.7491 17.7489 7.43492 17.7489 10.748H19.251C19.251 6.60533 15.8927 3.247 11.75 3.247V4.7491ZM16.0939 16.1541L19.4689 19.5291L20.5311 18.467L17.1561 15.092L16.0939 16.1541Z" fill="black"/>
</svg>
